<?xml version="1.0" standalone="no"?>
<!DOCTYPE svg PUBLIC "-//W3C//DTD SVG 20010904//EN"
 "http://www.w3.org/TR/2001/REC-SVG-20010904/DTD/svg10.dtd">
<svg version="1.0" xmlns="http://www.w3.org/2000/svg"
 width="1181.000000pt" height="1181.000000pt" viewBox="0 0 1181.000000 1181.000000"
 preserveAspectRatio="xMidYMid meet">
<metadata>
Created by potrace 1.14, written by Peter Selinger 2001-2017
</metadata>
<g transform="translate(0.000000,1181.000000) scale(0.100000,-0.100000)"
fill="#000000" stroke="none">
<path d="M477 10899 c-43 -25 -88 -149 -168 -465 -110 -436 -155 -714 -213
-1314 -25 -257 -70 -964 -83 -1310 -6 -156 -5 -170 10 -164 12 4 17 1 17 -10
0 -11 9 -16 29 -16 16 0 34 -7 41 -15 16 -19 14 -21 -30 -32 -28 -7 -36 -15
-38 -36 -2 -20 -9 -27 -24 -27 -20 0 -20 -2 -15 -447 7 -647 51 -1061 163
-1553 47 -204 85 -304 122 -319 119 -48 552 -113 552 -83 0 5 -9 57 -20 118
-11 60 -33 199 -50 309 -223 1519 -129 3137 296 5109 25 114 44 209 42 211 -2
2 -111 15 -243 29 -255 28 -359 32 -388 15z m260 -601 c-3 -8 -6 -5 -6 6 -1
11 2 17 5 13 3 -3 4 -12 1 -19z m8 -58 c-3 -5 -15 -10 -26 -10 -11 0 -17 5
-14 10 3 6 15 10 26 10 11 0 17 -4 14 -10z m-645 -1630 c0 -5 -5 -10 -11 -10
-5 0 -7 5 -4 10 3 6 8 10 11 10 2 0 4 -4 4 -10z m60 -21 c0 -5 -4 -9 -10 -9
-5 0 -10 7 -10 16 0 8 5 12 10 9 6 -3 10 -10 10 -16z m-63 -21 c-3 -8 -6 -5
-6 6 -1 11 2 17 5 13 3 -3 4 -12 1 -19z m480 -390 c-3 -8 -6 -5 -6 6 -1 11 2
17 5 13 3 -3 4 -12 1 -19z m-410 -410 c-3 -8 -6 -5 -6 6 -1 11 2 17 5 13 3 -3
4 -12 1 -19z m140 -240 c-3 -7 -5 -2 -5 12 0 14 2 19 5 13 2 -7 2 -19 0 -25z
m-215 -10 c-9 -9 -12 -7 -12 12 0 19 3 21 12 12 9 -9 9 -15 0 -24z m48 -223
c0 -8 -4 -15 -9 -15 -13 0 -22 16 -14 24 11 11 23 6 23 -9z"/>
<path d="M1197 10792 c-22 -79 -119 -524 -156 -712 -218 -1123 -327 -2342
-293 -3293 21 -572 55 -918 143 -1417 21 -124 41 -234 44 -245 4 -20 18 -21
317 -38 407 -22 484 -41 599 -144 50 -45 104 -156 124 -252 9 -41 18 -77 20
-79 5 -5 976 16 980 20 2 2 -3 84 -11 183 -47 624 -37 1556 26 2503 33 488 67
750 157 1204 26 130 44 240 41 243 -3 4 -16 1 -28 -5 -27 -14 -40 -1 -40 41 0
27 24 46 35 28 9 -14 25 0 25 22 0 19 20 47 37 52 4 1 49 187 99 412 51 226
103 456 117 512 36 143 50 276 45 403 -4 101 -7 115 -41 183 -35 72 -100 146
-162 187 -62 41 -145 59 -347 75 -109 8 -343 31 -520 50 -178 19 -505 53 -728
75 -223 22 -419 41 -436 44 -31 4 -32 3 -47 -52z m0 -484 c-3 -7 -5 -2 -5 12
0 14 2 19 5 13 2 -7 2 -19 0 -25z m1863 -28 c46 -23 74 -60 89 -118 30 -109
-55 -212 -174 -212 -148 0 -229 176 -132 287 56 64 142 81 217 43z m-1560
-290 c0 -5 -5 -10 -11 -10 -5 0 -7 5 -4 10 3 6 8 10 11 10 2 0 4 -4 4 -10z
m640 -114 c0 -3 -4 -8 -10 -11 -5 -3 -10 -1 -10 4 0 6 5 11 10 11 6 0 10 -2
10 -4z m87 -38 c-3 -8 -6 -5 -6 6 -1 11 2 17 5 13 3 -3 4 -12 1 -19z m254
-451 c-10 -9 -11 -8 -5 6 3 10 9 15 12 12 3 -3 0 -11 -7 -18z m-61 -1481 c0
-3 -4 -8 -10 -11 -5 -3 -10 -1 -10 4 0 6 5 11 10 11 6 0 10 -2 10 -4z m-1307
-2561 c4 -8 2 -17 -3 -20 -6 -4 -10 -17 -10 -30 0 -23 -16 -42 -27 -31 -7 7
19 96 28 96 4 0 9 -7 12 -15z m107 -9 c0 -3 -4 -8 -10 -11 -5 -3 -10 -1 -10 4
0 6 5 11 10 11 6 0 10 -2 10 -4z"/>
<path d="M8923 10526 c-49 -23 -59 -87 -44 -306 12 -182 8 -1448 -7 -2160 -4
-190 -6 -358 -3 -373 2 -19 12 -32 30 -39 34 -13 387 -22 476 -11 l70 8 10
475 10 476 26 49 c27 54 78 95 115 95 28 0 26 6 59 -205 31 -194 55 -650 44
-813 -4 -47 -1 -56 20 -74 22 -17 38 -19 145 -17 67 2 176 2 244 0 133 -3 164
6 181 52 11 29 -4 683 -19 812 -24 214 -58 374 -112 525 -45 127 -43 160 24
325 62 153 120 383 138 545 14 120 0 188 -42 208 -67 32 -209 40 -389 22 -157
-16 -159 -16 -159 -53 0 -49 -68 -373 -97 -462 -35 -109 -76 -188 -125 -241
-33 -36 -43 -42 -50 -30 -16 29 -20 134 -9 271 6 77 12 299 13 493 l2 353 -25
24 c-36 36 -136 55 -329 61 -131 4 -171 2 -197 -10z"/>
<path d="M4325 10509 c-25 -7 -101 -9 -201 -5 -140 6 -163 4 -175 -10 -10 -13
-12 -262 -10 -1396 2 -1486 0 -1421 51 -1448 46 -25 192 -31 375 -16 167 13
181 16 198 38 18 22 19 39 14 343 -3 176 -10 394 -16 483 -17 240 3 408 52
433 11 6 57 13 101 16 141 8 175 -35 153 -195 -7 -57 -11 -237 -9 -517 2 -480
7 -533 55 -569 27 -20 40 -21 267 -21 227 0 240 1 267 21 41 31 49 83 30 190
-13 68 -22 93 -43 115 l-27 29 36 78 37 78 0 716 c0 453 4 745 11 793 7 54 7
118 0 214 -7 93 -7 168 0 232 6 52 11 144 11 205 2 123 -11 171 -46 179 -11 2
-140 7 -286 10 -256 6 -267 6 -290 -13 l-25 -20 3 -495 3 -494 -103 -7 c-57
-3 -116 -3 -133 2 -57 16 -57 13 -53 532 l3 475 -30 15 c-36 18 -165 23 -220
9z m445 -1181 c0 -38 -3 -49 -11 -41 -10 10 -4 93 7 93 2 0 4 -23 4 -52z m-90
-51 c0 -18 -7 -42 -15 -53 -14 -18 -14 -17 -5 9 5 16 10 39 10 53 0 13 2 24 5
24 3 0 5 -15 5 -33z m-70 -17 c0 -5 -2 -10 -4 -10 -3 0 -8 5 -11 10 -3 6 -1
10 4 10 6 0 11 -4 11 -10z m187 -192 c-3 -8 -6 -5 -6 6 -1 11 2 17 5 13 3 -3
4 -12 1 -19z m-73 -14 c9 -23 8 -24 -19 -24 -27 0 -32 9 -13 28 16 16 25 15
32 -4z m-164 -34 c0 -5 -2 -10 -4 -10 -3 0 -8 5 -11 10 -3 6 -1 10 4 10 6 0
11 -4 11 -10z m577 -132 c-3 -8 -6 -5 -6 6 -1 11 2 17 5 13 3 -3 4 -12 1 -19z
m37 -107 c3 -5 -1 -11 -9 -14 -9 -4 -12 -1 -8 9 6 16 10 17 17 5z m-184 -372
c0 -4 -4 -11 -10 -14 -5 -3 -10 -19 -10 -36 0 -16 -2 -29 -4 -29 -2 0 -12 -3
-22 -7 -14 -5 -16 -2 -11 23 3 16 11 46 19 67 12 33 14 35 26 20 6 -9 12 -20
12 -24z m114 -11 c-9 -14 -23 2 -17 18 4 12 8 13 14 3 4 -7 5 -17 3 -21z
m-146 -294 c-3 -14 -5 -12 -10 9 -3 19 -2 25 4 19 6 -6 8 -18 6 -28z"/>
<path d="M8033 10149 c-18 -5 -47 -28 -67 -51 -20 -23 -36 -36 -36 -30 0 7 -7
12 -15 12 -9 0 -38 11 -65 25 -69 35 -119 33 -207 -9 -85 -41 -148 -95 -165
-142 -9 -27 -17 -34 -38 -34 -15 0 -35 -8 -44 -19 -23 -26 -53 -106 -61 -166
-3 -28 -13 -67 -21 -87 -23 -63 -35 -248 -39 -603 -3 -187 -9 -383 -14 -435
-38 -346 29 -636 186 -809 43 -48 74 -70 146 -106 144 -70 192 -80 402 -79
167 0 187 2 270 28 163 50 265 119 337 230 82 127 111 292 106 610 l-3 200
-27 7 c-15 4 -132 9 -260 11 -270 4 -293 -1 -304 -59 -4 -20 -1 -96 6 -170 18
-190 3 -271 -64 -350 -40 -48 -82 -46 -129 6 -45 50 -52 84 -72 383 -13 189
-15 327 -10 675 6 409 7 438 25 464 28 38 88 89 106 89 39 0 74 -32 106 -97
32 -67 33 -70 29 -178 -3 -60 -5 -152 -5 -202 -1 -88 0 -94 27 -120 27 -28 29
-28 175 -31 199 -4 356 9 382 33 18 17 20 31 20 171 0 158 -23 384 -41 394 -5
4 -14 33 -19 64 -13 83 -45 143 -110 206 -68 67 -160 114 -283 144 -113 29
-182 36 -224 25z m-73 -109 c0 -5 -2 -10 -4 -10 -3 0 -8 5 -11 10 -3 6 -1 10
4 10 6 0 11 -4 11 -10z m397 -302 c-3 -8 -6 -5 -6 6 -1 11 2 17 5 13 3 -3 4
-12 1 -19z m-961 -24 c-4 -9 -9 -15 -11 -12 -3 3 -3 13 1 22 4 9 9 15 11 12 3
-3 3 -13 -1 -22z"/>
<path d="M6245 10114 c-69 -11 -203 -48 -240 -67 -56 -28 -149 -103 -182 -145
-23 -31 -71 -166 -103 -293 -11 -41 -8 -198 3 -216 16 -26 77 -33 161 -18 44
8 97 15 117 15 38 0 195 -25 222 -36 11 -4 21 5 33 27 17 33 16 66 -2 209 l-6
45 52 29 c42 23 61 27 96 23 82 -9 123 -75 124 -195 0 -124 -3 -127 -240 -217
-228 -88 -355 -165 -450 -272 -79 -90 -115 -189 -145 -406 -21 -148 -21 -422
0 -542 43 -249 110 -341 291 -406 46 -17 84 -21 174 -22 130 -1 171 8 281 63
l77 38 15 -39 c10 -26 25 -42 44 -50 32 -12 338 -15 429 -4 78 10 89 17 108
67 15 39 16 110 10 708 -3 366 -6 694 -7 730 0 36 3 117 8 180 13 198 -27 406
-96 492 -16 20 -29 44 -29 53 0 26 -110 127 -170 157 -30 15 -91 37 -134 49
-67 18 -85 20 -113 10 -29 -11 -36 -9 -62 10 -26 19 -45 23 -133 25 -57 1
-116 0 -133 -2z m278 -1304 c-5 -207 -5 -287 -2 -425 3 -178 -11 -247 -62
-289 -56 -47 -134 -23 -174 54 -58 113 -29 401 60 595 34 76 49 91 110 123 64
34 70 28 68 -58z"/>
<path d="M4661 7199 c-24 -5 -55 -16 -70 -26 -14 -9 -42 -17 -61 -18 -72 -2
-212 -121 -272 -231 -42 -77 -58 -155 -58 -279 0 -174 38 -344 112 -500 15
-33 28 -70 28 -83 0 -14 -28 -52 -77 -104 -278 -298 -380 -591 -353 -1018 17
-276 104 -479 241 -566 103 -65 301 -100 470 -84 120 12 188 37 263 97 111 91
103 90 135 4 20 -54 25 -61 59 -71 49 -13 168 -12 212 3 28 10 37 20 46 52 9
28 13 33 13 17 1 -37 18 -59 52 -71 35 -12 161 -15 223 -4 l39 6 -6 56 c-6 67
-82 259 -200 506 -73 151 -82 176 -82 225 1 66 30 134 108 253 30 45 78 120
108 166 32 50 68 93 91 109 43 28 48 53 22 105 -25 50 -64 97 -77 94 -6 -1
-32 39 -57 90 -54 110 -74 133 -112 133 -53 0 -201 -167 -269 -303 -32 -66
-49 -89 -49 -69 0 7 -11 17 -24 22 -20 7 -26 19 -31 57 -4 26 -13 72 -20 101
-8 30 -11 60 -8 68 3 8 26 29 52 46 69 46 97 75 161 163 119 166 176 308 187
467 10 163 -46 327 -147 428 -93 94 -190 129 -424 155 -152 17 -161 17 -225 4z
m219 -89 c0 -5 -5 -10 -11 -10 -5 0 -7 5 -4 10 3 6 8 10 11 10 2 0 4 -4 4 -10z
m80 -26 c0 -8 -6 -11 -15 -8 -8 4 -15 15 -15 26 0 17 3 18 15 8 8 -7 15 -19
15 -26z m-83 -26 c-3 -7 -5 -2 -5 12 0 14 2 19 5 13 2 -7 2 -19 0 -25z m148 2
c3 -5 1 -10 -4 -10 -6 0 -11 5 -11 10 0 6 2 10 4 10 3 0 8 -4 11 -10z m109
-25 c3 -8 1 -15 -4 -15 -6 0 -10 7 -10 15 0 8 2 15 4 15 2 0 6 -7 10 -15z
m-687 -97 c-3 -8 -6 -5 -6 6 -1 11 2 17 5 13 3 -3 4 -12 1 -19z m143 -18 c0
-5 -4 -10 -10 -10 -5 0 -10 5 -10 10 0 6 5 10 10 10 6 0 10 -4 10 -10z m47
-42 c-3 -7 -5 -2 -5 12 0 14 2 19 5 13 2 -7 2 -19 0 -25z m-177 -18 c0 -12 -5
-17 -14 -14 -10 4 -16 -5 -22 -28 -4 -18 -9 -28 -11 -21 -6 16 24 83 36 83 6
0 11 -9 11 -20z m260 -40 c0 -11 -4 -20 -10 -20 -5 0 -10 9 -10 20 0 11 5 20
10 20 6 0 10 -9 10 -20z m117 -32 c-3 -7 -5 -2 -5 12 0 14 2 19 5 13 2 -7 2
-19 0 -25z m-242 -37 c3 -5 1 -12 -5 -16 -5 -3 -10 1 -10 9 0 18 6 21 15 7z
m350 -25 c42 -42 45 -125 9 -201 -21 -45 -76 -105 -96 -105 -31 0 -62 231 -42
308 6 19 13 22 56 22 38 0 54 -5 73 -24z m-475 -138 c0 -4 -7 -8 -15 -8 -10 0
-15 10 -15 28 1 26 1 26 15 8 8 -11 15 -23 15 -28z m-36 -263 c-6 -16 -24 -21
-24 -7 0 11 11 22 21 22 5 0 6 -7 3 -15z m166 -419 c0 -3 -4 -8 -10 -11 -5 -3
-10 -1 -10 4 0 6 5 11 10 11 6 0 10 -2 10 -4z m800 -47 c0 -10 -4 -19 -10 -19
-5 0 -10 12 -10 26 0 14 4 23 10 19 6 -3 10 -15 10 -26z m110 -40 c0 -6 9 -8
20 -4 16 5 20 2 20 -16 0 -18 4 -21 29 -16 30 6 75 -17 68 -36 -2 -6 -21 -15
-43 -22 -34 -9 -39 -15 -42 -42 -3 -25 -7 -30 -23 -26 -14 4 -18 11 -14 24 4
10 2 27 -4 36 -9 16 -10 16 -11 -4 0 -13 -4 -23 -10 -23 -5 0 -10 4 -10 9 0 6
-8 10 -17 10 -38 2 -78 8 -76 12 11 24 14 40 10 51 -8 22 12 51 27 39 9 -8 18
-6 32 4 23 17 44 19 44 4z m-800 -3 c0 -3 -4 -8 -10 -11 -5 -3 -10 -1 -10 4 0
6 5 11 10 11 6 0 10 -2 10 -4z m-62 -50 c-11 -20 -11 -20 -19 -1 -14 37 -11
47 10 33 16 -10 18 -16 9 -32z m722 14 c0 -5 -4 -10 -10 -10 -5 0 -10 5 -10
10 0 6 5 10 10 10 6 0 10 -4 10 -10z m-660 -42 c0 -5 -4 -8 -10 -8 -5 0 -10
10 -10 23 0 18 2 19 10 7 5 -8 10 -18 10 -22z m912 -70 c-9 -9 -12 -7 -12 12
0 19 3 21 12 12 9 -9 9 -15 0 -24z m-52 -88 c0 -11 -4 -20 -10 -20 -5 0 -10 9
-10 20 0 11 5 20 10 20 6 0 10 -9 10 -20z m-273 -22 c-3 -8 -6 -5 -6 6 -1 11
2 17 5 13 3 -3 4 -12 1 -19z m-1222 -28 c3 -5 1 -10 -4 -10 -6 0 -11 5 -11 10
0 6 2 10 4 10 3 0 8 -4 11 -10z m594 -268 c80 -188 104 -273 90 -324 -20 -78
-113 -149 -173 -134 -46 12 -76 135 -76 316 0 141 13 218 47 288 l27 53 12
-28 c6 -15 39 -92 73 -171z m693 16 c-10 -10 -15 -10 -22 2 -6 9 -5 17 3 22
18 11 33 -10 19 -24z"/>
<path d="M5507 5784 c-8 -8 1 -24 14 -24 5 0 9 7 9 15 0 15 -12 20 -23 9z"/>
<path d="M2370 4430 c-140 -4 -279 -8 -309 -9 l-53 -1 6 -35 c4 -20 23 -76 42
-125 106 -275 117 -534 39 -889 -70 -319 -88 -467 -88 -711 1 -216 16 -330 73
-553 42 -163 110 -517 110 -570 0 -41 -30 -106 -61 -133 -13 -11 -53 -37 -89
-57 -87 -49 -159 -105 -188 -147 -20 -29 -23 -44 -20 -92 5 -74 41 -121 129
-166 l64 -34 380 4 c340 4 385 6 423 22 52 22 114 91 130 144 18 60 15 377 -8
663 -71 916 -76 1692 -15 2359 13 151 27 290 29 308 l5 32 -172 -2 c-95 -1
-287 -5 -427 -8z m252 -726 c67 -35 106 -136 78 -204 -17 -41 -72 -87 -120
-100 -58 -16 -110 1 -153 49 -80 88 -52 212 58 263 43 20 88 17 137 -8z m-21
-947 c76 -51 100 -137 59 -216 -37 -73 -134 -109 -204 -76 -48 23 -93 76 -102
121 -8 42 8 101 36 136 46 59 150 76 211 35z m39 -892 c153 -79 97 -309 -75
-309 -63 0 -112 28 -143 82 -28 50 -28 93 -1 149 43 89 135 121 219 78z"/>
<path d="M4570 3874 c0 -8 -11 -14 -24 -14 -28 0 -36 -16 -36 -70 0 -44 -21
-71 -48 -63 -17 4 -19 0 -14 -45 2 -27 -1 -58 -7 -68 -10 -18 -10 -18 -11 4 0
28 -9 28 -51 -1 -45 -30 -66 -42 -57 -32 8 9 -15 35 -31 35 -16 0 -13 15 9 53
23 38 36 121 26 161 -6 25 -6 25 -49 10 -93 -32 -176 -116 -178 -179 -1 -29
-1 -29 -8 -5 -12 45 -36 35 -64 -27 -85 -191 -117 -312 -98 -379 6 -22 11 -57
11 -79 0 -46 45 -239 84 -360 28 -86 85 -175 114 -175 10 0 31 -24 52 -62 25
-44 78 -102 189 -207 309 -292 333 -318 378 -411 52 -107 67 -174 60 -257 -8
-80 -34 -139 -79 -179 -76 -66 -142 -65 -176 3 -38 76 -49 151 -61 416 -5 98
-11 180 -14 184 -13 13 -326 16 -408 4 -144 -22 -151 -31 -169 -218 -10 -109
-4 -182 16 -190 16 -6 19 -33 4 -33 -14 0 -13 -77 1 -82 8 -3 8 -28 0 -93 -20
-160 -10 -238 30 -250 10 -4 19 -15 19 -26 0 -30 26 -74 62 -104 33 -28 123
-75 145 -75 6 0 14 23 18 50 4 30 12 50 20 50 8 0 11 10 8 28 -4 25 -3 26 11
9 11 -14 24 -18 50 -14 20 3 36 1 36 -3 0 -4 9 -10 20 -13 16 -4 20 0 20 18 0
28 -19 43 -31 24 -6 -11 -9 -10 -15 4 -10 28 3 32 47 12 46 -21 79 -58 79 -88
0 -11 13 -33 30 -48 30 -29 30 -29 10 -49 -11 -11 -20 -33 -20 -50 0 -44 32
-53 180 -54 147 -1 189 6 229 40 18 15 32 20 36 14 10 -17 25 -11 25 10 0 17
3 18 18 9 24 -15 127 2 187 31 63 31 150 124 194 210 70 135 81 182 89 400 4
107 7 236 7 285 -1 102 -27 214 -56 241 -10 9 -19 27 -19 39 0 12 -17 56 -37
96 -30 61 -58 95 -157 192 -74 72 -132 120 -148 123 -16 4 -28 12 -28 18 0 18
-38 47 -44 33 -2 -7 -5 -2 -5 11 -1 16 -6 22 -18 20 -12 -2 -26 12 -43 44 -14
27 -30 48 -35 48 -6 0 -30 20 -54 44 -24 25 -54 47 -67 50 -13 4 -24 11 -24
16 0 8 -51 40 -64 40 -2 0 -6 -6 -9 -12 -2 -7 -2 -1 0 14 2 15 -1 36 -7 47
-11 22 -40 29 -40 10 0 -5 -5 -7 -11 -3 -8 5 -7 9 1 14 16 10 6 40 -14 40 -7
0 -17 11 -20 25 -4 14 -11 25 -16 25 -6 0 -10 24 -10 54 0 30 -4 58 -10 61
-42 26 91 155 161 155 45 0 98 -42 126 -99 24 -48 28 -69 31 -178 l4 -123 32
-4 c92 -15 234 -15 361 -2 162 17 173 20 181 53 11 42 -2 446 -15 478 -7 16
-30 53 -52 81 -21 28 -39 61 -39 72 0 12 -6 22 -14 22 -7 0 -44 27 -82 61 -84
74 -137 103 -175 95 -17 -3 -32 0 -39 9 -9 11 -33 15 -81 15 -40 0 -71 5 -75
12 -5 8 -11 6 -19 -6 -11 -15 -14 -15 -36 3 -19 15 -41 18 -111 18 -67 0 -88
-3 -88 -13z m377 -66 c-3 -7 -5 -2 -5 12 0 14 2 19 5 13 2 -7 2 -19 0 -25z
m-840 -220 c-3 -7 -5 -2 -5 12 0 14 2 19 5 13 2 -7 2 -19 0 -25z m1033 -24 c0
-8 -4 -12 -10 -9 -5 3 -10 13 -10 21 0 8 5 12 10 9 6 -3 10 -13 10 -21z m-830
-10 c0 -8 -4 -12 -10 -9 -5 3 -10 10 -10 16 0 5 5 9 10 9 6 0 10 -7 10 -16z
m960 -114 c0 -5 -4 -10 -10 -10 -5 0 -10 5 -10 10 0 6 5 10 10 10 6 0 10 -4
10 -10z m41 -23 c-13 -13 -26 -3 -16 12 3 6 11 8 17 5 6 -4 6 -10 -1 -17z
m-76 -57 c9 0 27 7 41 16 30 20 46 10 18 -11 -11 -8 -14 -15 -6 -15 6 0 20 -8
31 -19 18 -18 18 -19 1 -34 -10 -8 -21 -34 -25 -56 -6 -37 -4 -44 20 -63 l26
-20 -23 -12 c-21 -11 -25 -9 -43 23 -18 31 -25 35 -65 37 -24 1 -52 -2 -62 -7
-13 -7 -20 -4 -28 10 -11 21 -14 99 -3 88 3 -4 12 -2 20 4 10 9 13 8 13 -5 0
-9 7 -16 15 -16 10 0 15 10 15 30 0 17 5 30 10 30 6 0 10 15 11 33 0 29 1 30
9 10 5 -13 16 -23 25 -23z m-278 -102 c-3 -7 -5 -2 -5 12 0 14 2 19 5 13 2 -7
2 -19 0 -25z m103 11 c0 -11 -4 -18 -10 -14 -5 3 -7 12 -3 20 7 21 13 19 13
-6z m-820 -268 c12 -24 2 -60 -11 -39 -9 14 -12 58 -4 58 2 0 9 -9 15 -19z
m130 -21 c0 -11 -4 -20 -9 -20 -5 0 -7 9 -4 20 3 11 7 20 9 20 2 0 4 -9 4 -20z
m-64 -48 c-18 -16 -18 -16 -6 6 6 13 14 21 18 18 3 -4 -2 -14 -12 -24z m270
-31 c-7 -11 -5 -17 32 -88 12 -23 21 -55 21 -70 -1 -21 -3 -23 -6 -8 -7 28
-23 43 -23 22 0 -9 -5 -16 -12 -14 -15 3 -28 -44 -16 -60 5 -7 5 -14 -2 -18
-12 -7 -16 4 -25 68 -5 40 -9 47 -29 47 -20 0 -22 4 -22 53 1 41 7 60 26 83
24 29 26 29 44 13 10 -10 15 -22 12 -28z m-232 -57 c3 -8 2 -12 -4 -9 -6 3
-10 10 -10 16 0 14 7 11 14 -7z m314 -214 c-7 -10 -14 -17 -17 -15 -4 4 18 35
25 35 2 0 -1 -9 -8 -20z m589 -472 c-3 -8 -6 -5 -6 6 -1 11 2 17 5 13 3 -3 4
-12 1 -19z m-82 -118 c3 -5 -1 -10 -9 -10 -9 0 -16 5 -16 10 0 6 4 10 9 10 6
0 13 -4 16 -10z m-958 -792 c-3 -7 -5 -2 -5 12 0 14 2 19 5 13 2 -7 2 -19 0
-25z"/>
<path d="M7255 3871 l-60 -6 -6 -50 c-12 -89 -18 -983 -9 -1209 5 -129 5 -488
0 -878 -5 -397 -5 -670 1 -684 15 -40 50 -46 294 -47 258 -2 275 2 293 66 5
19 5 159 0 345 -5 171 -7 585 -6 919 l3 608 23 43 c25 47 73 82 113 82 107 0
158 -285 145 -819 -3 -146 -9 -474 -12 -728 l-7 -461 25 -25 c41 -41 116 -51
333 -44 105 4 200 9 212 13 12 3 27 20 34 38 18 47 23 259 9 346 -9 53 -15
314 -20 880 -8 881 -8 876 -68 997 -56 109 -137 173 -271 214 -63 19 -88 21
-185 16 -134 -6 -222 -33 -272 -83 -18 -19 -37 -34 -42 -34 -4 0 -14 98 -20
218 -7 119 -15 227 -19 240 -11 45 -47 52 -245 50 -101 -1 -210 -4 -243 -7z"/>
<path d="M6380 3838 c-50 -18 -63 -64 -57 -192 4 -72 10 -103 21 -115 14 -14
48 -16 239 -17 122 -1 230 3 240 8 9 5 17 18 17 28 0 24 8 25 34 5 11 -8 28
-15 37 -15 22 0 34 80 26 183 -4 61 -8 74 -31 94 -26 22 -35 23 -179 23 -84 0
-188 2 -232 5 -52 3 -92 1 -115 -7z"/>
<path d="M4378 3811 c-3 -18 0 -32 8 -35 26 -10 34 33 10 53 -11 9 -15 6 -18
-18z"/>
<path d="M5664 3830 c-35 -14 -47 -70 -42 -187 3 -61 10 -109 17 -116 8 -8 89
-12 297 -12 346 0 319 -14 311 155 -6 127 -11 147 -35 154 -31 10 -527 15
-548 6z"/>
<path d="M4400 3743 c-31 -10 -60 -27 -60 -35 0 -14 58 -9 74 8 27 26 21 39
-14 27z"/>
<path d="M10980 3494 c-119 -23 -228 -66 -315 -123 -22 -15 -47 -26 -56 -24
-9 2 -28 -14 -48 -42 -18 -25 -36 -45 -42 -45 -5 0 -9 -16 -9 -35 0 -28 -3
-33 -17 -28 -13 5 -15 2 -10 -11 5 -14 3 -17 -8 -12 -10 3 -15 -1 -15 -13 0
-9 -14 -38 -30 -63 -17 -25 -35 -67 -40 -94 -5 -27 -13 -339 -16 -694 -7 -669
0 -869 32 -992 47 -184 169 -298 389 -363 131 -39 337 -46 485 -16 148 31 288
99 359 176 57 64 120 184 146 285 20 74 32 423 18 524 -7 55 -10 60 -38 69
-76 23 -512 4 -539 -23 -7 -7 -13 -92 -16 -213 l-5 -203 -33 -66 c-31 -63 -62
-96 -105 -111 -30 -11 -82 49 -104 119 -16 51 -18 94 -17 329 0 190 4 277 12
292 17 31 68 38 178 24 51 -6 218 -11 372 -11 l279 0 6 233 c13 453 4 636 -38
773 -20 67 -84 163 -143 214 -56 48 -163 103 -247 126 -59 16 -327 28 -385 18z
m-140 -139 c0 -20 28 -26 33 -7 3 9 5 0 6 -20 0 -20 4 -44 7 -53 6 -14 10 -13
31 7 l25 23 -8 -30 c-12 -52 -34 -87 -50 -81 -9 3 -22 6 -29 6 -8 0 -17 23
-24 63 -14 79 -14 120 -1 112 6 -3 10 -12 10 -20z m145 5 c3 -5 -1 -10 -9 -10
-9 0 -16 5 -16 10 0 6 4 10 9 10 6 0 13 -4 16 -10z m-189 -148 c-13 -13 -16 9
-9 59 l8 54 3 -54 c2 -29 1 -56 -2 -59z m241 86 c-3 -8 -6 -5 -6 6 -1 11 2 17
5 13 3 -3 4 -12 1 -19z m-49 0 c7 -7 12 -35 12 -62 0 -33 -3 -46 -9 -37 -5 7
-14 10 -20 7 -8 -5 -11 9 -9 48 3 58 6 64 26 44z m-268 -89 c-10 -23 -10 -23
-5 4 4 22 3 27 -7 21 -8 -5 -7 -1 2 11 12 15 16 15 18 3 1 -8 -2 -25 -8 -39z
m340 47 c0 -3 -4 -8 -10 -11 -5 -3 -10 -1 -10 4 0 6 5 11 10 11 6 0 10 -2 10
-4z m-513 -88 c-3 -7 -5 -2 -5 12 0 14 2 19 5 13 2 -7 2 -19 0 -25z m403 12
c0 -5 -9 -14 -20 -20 -22 -12 -27 -1 -8 18 14 14 28 16 28 2z m-244 -37 c-4
-16 -2 -42 3 -59 5 -17 6 -44 3 -60 -5 -27 -6 -26 -18 17 -8 24 -14 54 -14 67
0 22 -1 22 -25 6 -14 -9 -25 -12 -25 -7 0 5 16 17 35 26 19 9 35 21 35 27 0 5
3 10 6 10 3 0 3 -12 0 -27z m415 -96 c53 -16 74 -47 88 -137 14 -84 14 -286 1
-311 -9 -17 -22 -19 -105 -19 -120 0 -141 8 -156 60 -10 33 -9 63 5 168 9 70
18 148 19 175 1 42 4 47 24 47 13 0 28 9 35 20 8 12 19 18 29 15 9 -3 36 -11
60 -18z m-466 -7 c-3 -5 -10 -10 -16 -10 -5 0 -9 5 -9 10 0 6 7 10 16 10 8 0
12 -4 9 -10z m-122 -33 c5 -17 -12 -77 -22 -77 -10 0 -21 34 -21 65 0 23 35
32 43 12z"/>
<path d="M6133 3459 c-221 -28 -401 -136 -482 -289 -78 -147 -108 -427 -92
-867 6 -148 8 -345 4 -438 -8 -254 14 -450 64 -570 68 -160 264 -318 441 -354
104 -22 421 -5 515 27 138 46 279 168 340 293 54 110 66 186 73 494 11 433 10
456 -9 493 -10 19 -13 32 -7 32 7 0 10 38 8 117 l-3 117 -27 7 c-19 5 -28 3
-28 -4 0 -7 -9 -18 -20 -25 -11 -7 -20 -19 -20 -27 0 -18 5 -18 31 -4 19 9 19
9 10 -10 -6 -11 -11 -30 -11 -42 0 -21 -1 -21 -18 -6 -10 10 -27 17 -38 17
-19 1 -19 1 1 15 18 14 18 16 2 32 -16 16 -17 16 -17 -5 0 -16 -4 -20 -17 -15
-14 5 -15 1 -10 -25 5 -24 3 -32 -8 -32 -7 0 -16 -8 -18 -17 -4 -16 -5 -16 -6
1 0 11 -8 28 -18 38 -20 23 -12 33 16 18 19 -9 21 -8 21 14 0 31 -15 41 -57
37 -26 -2 -32 1 -27 13 4 10 0 13 -13 10 -13 -4 -18 1 -19 18 0 13 -4 30 -8
39 -5 12 -1 18 18 23 17 4 24 12 23 26 -1 11 -5 20 -9 20 -4 0 -8 18 -8 40 0
37 -11 52 -24 31 -3 -5 -16 -7 -28 -3 -15 3 -19 2 -14 -7 4 -6 3 -17 -2 -24
-13 -15 -32 -117 -22 -117 4 0 10 -11 13 -25 3 -20 -1 -29 -20 -39 -22 -11
-23 -14 -9 -25 15 -12 22 -41 11 -41 -6 0 -57 52 -53 54 2 1 15 8 31 16 15 7
27 19 27 27 0 15 -35 12 -52 -5 -19 -19 -28 -14 -28 12 0 39 -17 74 -39 81
-15 4 -21 14 -20 33 2 24 2 24 6 5 5 -24 13 -27 51 -17 24 7 29 33 10 52 -9 9
-9 12 -1 12 7 0 15 -4 18 -10 13 -21 25 -8 25 27 0 34 -1 36 -14 17 -14 -18
-15 -17 -30 18 -9 21 -16 48 -15 60 l0 23 9 -22 c6 -16 18 -23 36 -23 22 0 25
3 21 23 -4 12 -2 29 3 37 8 12 10 11 10 -7 0 -33 18 -38 32 -9 7 17 19 26 35
26 21 0 22 3 13 20 -8 14 -8 20 0 20 6 0 13 -14 17 -30 5 -26 8 -28 21 -18 11
10 11 6 -3 -15 -15 -23 -23 -27 -46 -22 -26 6 -29 4 -29 -19 0 -22 4 -26 29
-26 17 0 33 -5 37 -11 5 -8 13 -4 24 11 l17 22 44 -24 c33 -18 45 -32 47 -52
2 -14 9 -26 15 -25 38 5 57 -2 57 -21 0 -11 -4 -20 -10 -20 -15 0 -12 -25 7
-65 16 -33 33 -46 33 -25 0 5 7 7 15 4 18 -7 21 36 4 53 -8 8 -6 20 6 42 9 17
14 35 11 39 -3 5 0 27 5 51 20 89 -27 308 -94 434 -84 160 -267 259 -527 287
-108 11 -149 11 -237 -1z m-53 -173 c0 -2 -7 -9 -15 -16 -13 -11 -14 -10 -9 4
5 14 24 23 24 12z m130 -121 c0 -8 -2 -15 -4 -15 -2 0 -6 7 -10 15 -3 8 -1 15
4 15 6 0 10 -7 10 -15z m101 -171 c38 -19 77 -68 91 -117 23 -75 11 -1371 -13
-1429 -26 -64 -134 -90 -182 -45 -61 56 -83 204 -71 467 9 197 10 362 4 685
-4 212 5 291 41 375 39 88 62 99 130 64z m181 -286 c-9 -9 -12 -7 -12 12 0 19
3 21 12 12 9 -9 9 -15 0 -24z m481 -244 c-7 -19 -10 -18 -16 5 -3 13 -1 18 9
14 7 -2 10 -11 7 -19z m-413 -25 c0 -12 -37 -12 -44 0 -3 4 -3 11 0 14 8 7 44
-4 44 -14z m147 4 c-9 -2 -15 -9 -12 -14 4 -5 -1 -9 -11 -9 -13 0 -14 3 -4 15
7 8 20 14 29 14 13 -1 13 -2 -2 -6z m-31 -103 c30 0 34 -3 34 -25 0 -19 -5
-25 -21 -25 -12 0 -17 -4 -14 -11 4 -6 -3 -5 -14 3 -18 11 -23 11 -31 -2 -8
-13 -12 -13 -27 3 -17 17 -17 19 7 65 24 44 25 45 28 19 3 -24 8 -27 38 -27z
m-126 -9 c0 -5 -7 -12 -16 -15 -14 -5 -15 -4 -4 9 14 17 20 19 20 6z m-10
-813 c0 -6 -6 -5 -15 2 -8 7 -15 14 -15 16 0 2 7 1 15 -2 8 -4 15 -11 15 -16z
m90 -42 c0 -3 -4 -8 -10 -11 -5 -3 -10 -1 -10 4 0 6 5 11 10 11 6 0 10 -2 10
-4z"/>
<path d="M9634 3430 c-39 -10 -103 -35 -142 -54 l-72 -36 -6 27 c-3 16 -7 33
-9 39 -6 19 -218 24 -310 7 -44 -8 -116 -13 -160 -11 l-80 3 -15 -40 c-13 -34
-15 -197 -18 -1175 -2 -624 -1 -1144 2 -1155 8 -29 40 -42 143 -56 101 -13
388 -5 409 11 7 6 16 30 21 53 4 23 8 447 8 942 0 817 2 903 16 930 23 41 46
60 97 81 l43 17 40 -39 c21 -21 47 -58 56 -83 21 -53 20 31 13 -1065 -4 -638
-3 -802 7 -816 24 -34 110 -43 325 -34 169 8 200 12 215 27 17 17 18 43 15
360 -2 203 2 393 9 469 9 96 8 158 -1 262 -10 120 -9 152 6 260 17 119 17 126
-1 206 -17 74 -18 94 -7 204 16 159 15 219 -3 308 -23 106 -56 171 -123 237
-125 126 -296 169 -478 121z"/>
<path d="M6750 2711 c0 -11 5 -23 10 -26 6 -3 10 3 10 14 0 11 -4 23 -10 26
-5 3 -10 -3 -10 -14z"/>
<path d="M6754 2649 c-3 -6 -1 -15 5 -20 6 -5 9 -6 6 -3 -3 4 0 13 6 21 8 9 8
13 1 13 -6 0 -14 -5 -18 -11z"/>
<path d="M6880 2556 c0 -8 5 -18 10 -21 6 -3 10 1 10 9 0 8 -4 18 -10 21 -5 3
-10 -1 -10 -9z"/>
</g>
</svg>
